<?xml version="1.0" encoding="UTF-8" standalone="no"?>
<!-- Created with Inkscape (http://www.inkscape.org/) -->

<svg
   xmlns:dc="http://purl.org/dc/elements/1.1/"
   xmlns:cc="http://creativecommons.org/ns#"
   xmlns:rdf="http://www.w3.org/1999/02/22-rdf-syntax-ns#"
   xmlns:svg="http://www.w3.org/2000/svg"
   xmlns="http://www.w3.org/2000/svg"
   xmlns:sodipodi="http://sodipodi.sourceforge.net/DTD/sodipodi-0.dtd"
   xmlns:inkscape="http://www.inkscape.org/namespaces/inkscape"
   width="150mm"
   height="150mm"
   viewBox="0 0 150 150"
   version="1.1"
   id="svg8"
   inkscape:version="0.92.5 (2060ec1f9f, 2020-04-08)"
   sodipodi:docname="wf_logo_final.svg"
   inkscape:export-filename="/home/vinogradova/Nextcloud/Notes/wf_logo_final.png"
   inkscape:export-xdpi="150.10159"
   inkscape:export-ydpi="150.10159">
  <defs
     id="defs2">
    <inkscape:path-effect
       effect="bspline"
       id="path-effect932"
       is_visible="true"
       lpeversion="1"
       weight="33.333333"
       steps="2"
       helper_size="0"
       apply_no_weight="true"
       apply_with_weight="true"
       only_selected="false" />
  </defs>
  <sodipodi:namedview
     id="base"
     pagecolor="#ffffff"
     bordercolor="#666666"
     borderopacity="1.0"
     inkscape:pageopacity="0.0"
     inkscape:pageshadow="2"
     inkscape:zoom="1"
     inkscape:cx="395.57454"
     inkscape:cy="277.42547"
     inkscape:document-units="mm"
     inkscape:current-layer="layer1"
     showgrid="false"
     inkscape:snap-global="false"
     inkscape:pagecheckerboard="0"
     inkscape:window-width="1920"
     inkscape:window-height="1019"
     inkscape:window-x="1911"
     inkscape:window-y="-9"
     inkscape:window-maximized="1" />
  <metadata
     id="metadata5">
    <rdf:RDF>
      <cc:Work
         rdf:about="">
        <dc:format>image/svg+xml</dc:format>
        <dc:type
           rdf:resource="http://purl.org/dc/dcmitype/StillImage" />
        <dc:title />
      </cc:Work>
    </rdf:RDF>
  </metadata>
  <g
     inkscape:groupmode="layer"
     id="layer10"
     inkscape:label="body"
     style="display:inline"
     transform="translate(0,-147)">
    <g
       inkscape:groupmode="layer"
       id="layer7"
       inkscape:label="snake_body_new"
       style="display:inline">
      <g
         inkscape:groupmode="layer"
         id="layer14"
         inkscape:label="head back"
         style="display:inline">
        <path
           style="fill:#366994;fill-opacity:1;stroke:#274d71;stroke-width:1.20000005;stroke-linecap:butt;stroke-linejoin:miter;stroke-miterlimit:4;stroke-dasharray:none;stroke-opacity:1"
           d="m 49.653512,187.0632 3.906163,8.35851 5.893294,14.40583 31.524432,0.93544 5.26187,-11.31886 5.738779,-10.45524 -21.477619,-0.0217 z"
           id="path4721"
           inkscape:connector-curvature="0"
           sodipodi:nodetypes="cccccccc" />
      </g>
      <path
         style="opacity:1;fill:#387cb5;fill-opacity:1;stroke:none;stroke-width:0.40357161;stroke-linecap:round;stroke-linejoin:round;stroke-miterlimit:4;stroke-dasharray:none;stroke-dashoffset:0;stroke-opacity:1"
         d="m 50.02326,282.42985 c -3.392556,-0.28248 -5.493215,-0.68197 -8.727551,-1.65974 -5.453123,-1.64853 -8.681352,-3.09236 -12.245244,-5.4767 -5.944942,-3.97732 -10.252903,-10.53914 -11.064084,-16.85263 -0.358846,-2.79294 0.17576,-10.29297 0.951196,-13.34435 0.760505,-2.99264 3.34201,-7.53732 5.664485,-9.9722 2.339888,-2.45313 3.680161,-3.28374 8.223282,-5.09618 2.296745,-0.91627 8.687464,-2.52597 9.362326,-2.52597 0.143894,0 0.278797,0.47498 0.362318,1.27567 0.540051,5.17733 2.809465,11.2076 5.826297,15.48161 0.644448,0.913 2.140212,2.66131 3.323918,3.88514 l 2.152197,2.22514 -2.285436,0.13364 c -1.194372,0.0698 -4.693716,0.5884 -6.349844,1.06833 l -1.602195,0.4643 -0.340452,-0.43559 c -0.458087,-0.58609 -1.661184,-2.97305 -1.661184,-3.2958 0,-0.14195 -0.179308,-0.25809 -0.398465,-0.25809 -0.339368,0 -0.379696,0.0771 -0.271936,0.51972 0.364185,1.4959 1.542187,3.38773 3.030235,4.86644 2.333959,2.31933 4.031388,3.17918 7.472802,3.78545 3.128132,0.55108 5.289928,0.10353 7.073715,-1.46446 l 1.048549,-3.06281 1.347946,0.61428 c 1.888908,0.8608 4.548179,1.68407 7.086806,2.19397 1.877417,0.37709 2.729148,0.43461 6.416979,0.43341 3.332488,-0.001 4.618646,-0.0748 5.946267,-0.34087 1.896354,-0.38003 4.789501,-1.26849 6.290712,-1.93182 l 0.992188,-0.43841 -0.301736,4.04867 c -0.0011,1.90109 -0.56674,5.99527 -1.152306,8.33917 -1.139041,4.55934 -3.952946,8.7333 -7.515674,11.14825 -3.543107,2.40165 -9.131279,4.21529 -16.37207,5.31354 -3.051482,0.46283 -8.961998,0.63551 -12.284226,0.35889 z"
         id="path1003"
         inkscape:connector-curvature="0"
         sodipodi:nodetypes="csssssssssccssccssccscccscccccssscc" />
      <path
         style="opacity:1;fill:#387cb5;fill-opacity:1;stroke:none;stroke-width:0.40357161;stroke-linecap:round;stroke-linejoin:round;stroke-miterlimit:4;stroke-dasharray:none;stroke-dashoffset:0;stroke-opacity:1"
         d="m 110.58043,269.12566 c -3.17222,-0.51946 -7.00102,-1.63033 -8.91278,-2.5859 -2.014646,-1.007 -6.099399,-3.63339 -12.469404,-8.0175 l -2.382414,-0.77635 -0.0072,-1.23511 -0.0072,-1.2351 1.242261,-1.49646 c 4.018118,-1.97754 8.062661,-5.3733 10.917371,-9.16613 0.59505,-0.7906 1.114956,-1.43746 1.155336,-1.43746 0.0404,0 2.02552,1.3566 2.77811,1.91217 2.92119,2.1565 6.15105,3.97028 8.1832,4.59541 0.88238,0.27144 1.70912,0.34182 3.86297,0.32885 5.93913,-0.0358 9.4156,-1.48996 11.68947,-4.88968 1.13279,-1.69366 1.67062,-3.29239 1.92149,-5.71176 0.44519,-4.29325 -0.67898,-8.77825 -3.72797,-14.87311 -2.45995,-4.9174 -3.91653,-7.01697 -7.68165,-11.07258 -1.30102,-1.40141 -2.33062,-2.58288 -2.288,-2.62551 0.1228,-0.1228 5.31275,2.51339 7.03331,3.57252 3.78514,2.33002 7.76697,7.076 10.61891,12.65679 2.01707,3.94709 3.15645,7.42568 4.00294,12.22127 0.74783,4.2366 0.52578,10.41694 -0.50101,13.94485 -0.97169,3.33861 -2.6785,6.30443 -4.89995,8.51437 -1.81878,1.80936 -5.59259,4.49913 -7.94656,5.66388 -3.26176,1.61394 -8.67972,2.35143 -12.58122,1.71254 z"
         id="path1005"
         inkscape:connector-curvature="0"
         sodipodi:nodetypes="csscccccscsscssccssscsccc" />
    </g>
    <g
       inkscape:groupmode="layer"
       id="layer11"
       inkscape:label="shading"
       style="display:inline">
      <path
         style="display:inline;fill:#366994;fill-opacity:1;stroke:none;stroke-width:0.26458299px;stroke-linecap:butt;stroke-linejoin:miter;stroke-opacity:1"
         d="m 18.265699,259.6465 c 0,0 1.031242,-1.6384 1.748141,-1.41741 0.628512,0.19375 0.0071,1.5448 0.566963,1.88988 0.231444,0.14264 0.618379,-0.34113 0.803201,-0.14174 0.475201,0.51265 -1.012643,1.53599 -0.519719,2.03162 0.503691,0.50645 1.535752,-0.98363 2.078871,-0.51971 0.408732,0.34913 -0.552621,1.25979 -0.141742,1.60639 0.236508,0.19951 0.66851,-0.44411 0.897694,-0.23623 0.366292,0.33224 -0.613039,1.14437 -0.236236,1.46465 0.189735,0.16127 0.510161,-0.38652 0.708705,-0.23623 0.804536,0.60901 -1.052778,2.59001 -0.14174,3.02381 0.533748,0.25415 0.734373,-1.12557 1.322917,-1.18118 0.274274,-0.0259 0.589822,0.1767 0.708705,0.42523 0.247007,0.51637 -0.715196,1.38745 -0.236236,1.70089 0.479142,0.31356 0.893152,-0.93342 1.464659,-0.89769 0.704523,0.044 1.155554,0.82271 1.653646,1.32291 0.411322,0.41306 0.815958,0.85392 1.086681,1.37017 0.351688,0.67064 -0.01135,1.82582 0.661458,2.17336 0.707969,0.3657 1.471018,-0.75866 2.267857,-0.75595 0.732112,0.002 1.506774,0.25186 2.078869,0.7087 0.375708,0.30002 0.369544,0.94232 0.755951,1.22843 1.452098,1.07517 3.786076,0.30347 5.24442,1.37016 0.571315,0.41788 0.468587,1.55385 1.13393,1.79539 0.870778,0.31612 1.732356,-0.69635 2.645834,-0.85045 1.335904,-0.22537 2.758842,-0.46052 4.063243,-0.0945 0.954811,0.26792 1.705794,1.01804 2.504093,1.6064 0.629819,0.46418 1.060413,1.24366 1.795386,1.5119 0.917258,0.33477 1.958504,0.10467 2.929316,0 0.881463,-0.095 1.795938,-0.19044 2.598586,-0.56696 0.904132,-0.42413 1.395958,-2.09448 2.362351,-1.84264 0.314183,0.0819 0.459147,0.58333 0.377976,0.8977 -0.235517,0.91213 -1.090706,1.47061 -1.823736,2.06232 -1.383913,1.11711 -2.998695,2.14576 -4.507365,3.0876 -0.615839,0.38446 -1.984375,0.89769 -1.984375,0.89769 l -8.409971,-0.94494 -6.992559,-1.88988 -7.276042,-3.63802 -6.189358,-4.63021 -3.071059,-3.9215 -2.126114,-4.63021 z"
         id="path858"
         inkscape:connector-curvature="0"
         sodipodi:nodetypes="csssssssssssssssssssssssssssssssscccccccc" />
      <path
         style="display:inline;fill:#8bafcf;fill-opacity:1;stroke:none;stroke-width:0.26458299px;stroke-linecap:butt;stroke-linejoin:miter;stroke-opacity:1"
         d="m 25.4,238.47983 c 0.73468,-1.36462 1.665089,-2.66857 2.834823,-3.68526 1.831166,-1.59158 4.077617,-2.69184 6.331101,-3.59078 2.004526,-0.79963 4.170086,-1.12382 6.283854,-1.55915 2.376141,-0.48937 5.056137,-2.35086 7.181545,-1.18117 1.094279,0.60222 1.998707,2.31991 1.46466,3.44903 -0.884273,1.86959 -3.923454,-0.11368 -5.953125,0.28348 -2.60985,0.51069 -4.427182,0.76398 -6.99256,1.46466 -1.740189,0.4753 -4.554314,1.82489 -5.858631,3.07105 -1.064444,1.01699 -1.7417,2.08933 -2.69308,3.2128 -0.712435,0.8413 -1.736301,3.02553 -2.834821,3.1183 -0.61764,0.0522 -0.897691,-0.85044 -0.8032,-1.27566 0.09449,-0.42523 0.362751,-1.29607 0.566965,-1.93713 0.146639,-0.46032 0.243452,-0.94479 0.472469,-1.37017 z"
         id="path856"
         inkscape:connector-curvature="0"
         sodipodi:nodetypes="ssssssssssssss" />
      <path
         style="fill:#8bafcf;fill-opacity:1;stroke:none;stroke-width:0.26458299px;stroke-linecap:butt;stroke-linejoin:miter;stroke-opacity:1"
         d="m 99.577824,243.72425 c 0.936756,0.94311 1.415406,2.27991 2.362356,3.2128 1.10205,1.08569 2.40079,1.9919 3.77977,2.69308 1.19862,0.60947 2.51753,0.97005 3.82701,1.27567 2.13645,0.49863 4.32863,1.00045 6.52009,0.8977 1.5836,-0.0742 3.14894,-0.52173 4.6302,-1.08669 2.09393,-0.79864 4.34419,-1.60547 5.90588,-3.21279 0.84911,-0.87392 1.01006,-2.2254 1.65365,-3.26005 0.41592,-0.66865 0.63933,-2.01097 1.41741,-1.88988 0.37895,0.059 0.32616,0.70668 0.37797,1.08668 0.10019,0.73491 0.0875,1.5152 -0.14174,2.22061 -0.51845,1.59565 -1.3937,3.19086 -2.69308,4.25223 -1.47469,1.20457 -3.50139,1.53239 -5.33891,2.03163 -1.3717,0.37268 -2.78702,0.60949 -4.20498,0.7087 -1.72881,0.12096 -3.47205,0.0236 -5.19718,-0.14174 -1.92268,-0.18425 -3.87076,-0.37709 -5.71689,-0.94494 -1.75785,-0.5407 -3.43238,-1.36684 -5.00819,-2.3151 -1.55996,-0.93873 -2.911326,-2.18733 -4.346726,-3.3073 -0.95406,-0.74441 -2.794753,-1.0584 -2.834823,-2.26785 -0.0332,-1.0027 1.21862,-1.98138 2.220613,-2.03162 1.15767,-0.0581 1.97072,1.25647 2.78757,2.07886 z"
         id="path868"
         inkscape:connector-curvature="0"
         sodipodi:nodetypes="sssssssssssssssssssss" />
      <path
         style="fill:#366994;fill-opacity:1;stroke:none;stroke-width:0.26458299px;stroke-linecap:butt;stroke-linejoin:miter;stroke-opacity:1"
         d="m 88.004041,255.71103 c 0.23669,-0.31817 0.55509,-0.6228 0.93544,-0.73499 0.57926,-0.17085 1.20987,0.0591 1.80407,0.16704 1.07918,0.19608 2.35234,0.14182 3.17383,0.86862 0.35159,0.31106 0.17004,1.0071 0.53453,1.30295 0.66819,0.54236 1.72515,0.18815 2.539073,0.46771 0.59356,0.20387 1.21873,0.43292 1.67043,0.86863 0.27637,0.26659 0.24279,0.79799 0.56795,1.00226 0.42529,0.26717 1.041776,-0.0977 1.503386,0.10023 0.86202,0.36954 1.20267,1.55065 2.07134,1.90429 0.69136,0.28146 1.58558,-0.2952 2.23839,0.0668 0.80764,0.44786 0.61903,2.20243 1.5368,2.3052 0.3053,0.0342 0.52066,-0.36529 0.66817,-0.63476 0.31041,-0.56708 -0.23287,-1.66454 0.3675,-1.9043 0.17793,-0.0711 0.37501,0.16642 0.46772,0.33409 0.36168,0.65412 -0.32638,1.64926 0.13364,2.23838 0.5029,0.64404 1.52257,0.6928 2.33861,0.73499 1.72524,0.0892 3.47718,-0.38647 5.07811,-1.03567 0.61263,-0.24843 1.01674,-0.97056 1.67044,-1.06908 0.74271,-0.11193 1.42047,0.60287 2.17157,0.60136 0.74037,-10e-4 1.42222,-0.41271 2.13815,-0.60136 0.67646,-0.17825 1.33974,-0.54469 2.03793,-0.50113 0.55939,0.0349 1.33635,1.00226 1.57021,0.60136 0.23386,-0.40091 0.4226,-1.83023 1.1693,-1.9377 0.53831,-0.0775 0.74059,0.81575 1.20272,1.10248 0.44636,0.27694 1.10074,0.94158 1.46998,0.56795 0.21077,-0.21328 -0.26369,-0.54375 -0.33409,-0.83522 -0.084,-0.34792 -0.29571,-0.76926 -0.10022,-1.06908 0.21157,-0.32449 0.74459,-0.51573 1.10248,-0.36749 0.32208,0.13341 0.12156,0.89419 0.46773,0.93544 0.46299,0.0552 0.54308,-0.7715 0.90203,-1.06908 0.453,-0.37555 1.5368,-0.86862 1.5368,-0.86862 l 1.77066,-1.5368 -2.07134,3.67495 -5.0113,4.04246 -6.04697,3.34087 -8.71967,0.86862 -8.01809,-1.43657 -6.715156,-3.14042 -5.011303,-3.60814 -4.40995,-2.90655 -0.7684,-1.9043 c 0,0 0.16755,-0.66663 0.3675,-0.93542 z"
         id="path870"
         inkscape:connector-curvature="0"
         sodipodi:nodetypes="ssssssssssssssssssssssssssssssscccccccccccs" />
    </g>
    <g
       inkscape:groupmode="layer"
       id="layer9"
       inkscape:label="breast_color"
       style="display:inline">
      <path
         style="display:inline;opacity:1;fill:#8bafcf;fill-opacity:1;stroke:none;stroke-width:0.42857206;stroke-linecap:round;stroke-linejoin:round;stroke-miterlimit:4;stroke-dasharray:none;stroke-dashoffset:0;stroke-opacity:1"
         d="m 55.41739,281.39158 c 0,0 1.989552,-0.66858 2.86722,-1.22532 2.601577,-1.65028 4.863481,-3.8358 6.907538,-6.14089 1.920103,-2.16531 3.657701,-4.54306 4.950987,-7.13203 0.859988,-1.72157 1.365882,-3.60929 1.814636,-5.48065 0.279692,-1.16635 0.360789,-2.37155 0.541182,-3.55733 0.180395,-1.18577 -0.207299,-2.6201 0.541184,-3.55732 1.163047,-1.45632 5.204793,-2.04256 5.204793,-2.04256 l 5.204794,-2.04256 2.031624,-0.0225 2.031621,-0.0225 0.223057,3.16555 0.22306,3.16555 -1.14744,5.81138 -1.147439,5.81139 -1.049859,1.79538 c -0.577424,0.98747 -1.403501,2.39504 -1.83573,3.12794 l -0.785868,1.33255 -2.19144,1.62787 -2.191441,1.62787 -3.97814,1.6527 -3.978134,1.65269 -4.488469,0.64836 c -4.416052,0.63789 -4.544113,0.65073 -7.9375,0.79582 -1.896967,0.0811 -3.725428,0.16692 -4.063243,0.1907 -0.607515,0.0428 -0.582951,0.0299 2.253007,-1.18207 z"
         id="path1019"
         inkscape:connector-curvature="0"
         sodipodi:nodetypes="cssssssccccccccsccccccssccc" />
    </g>
    <g
       inkscape:groupmode="layer"
       id="layer8"
       inkscape:label="trace_breast"
       style="display:inline">
      <path
         style="fill:#000000;fill-opacity:0;stroke:#366994;stroke-width:1.20000005;stroke-linecap:butt;stroke-linejoin:round;stroke-miterlimit:4;stroke-dasharray:none;stroke-opacity:1"
         d="m 52.235497,282.97905 c 0.147522,-0.20632 0.322885,-0.38997 0.520156,-0.55491 m 0,0 c 1.492097,-1.24748 4.23754,-1.42374 5.669202,-2.23271 1.812323,-1.07644 3.434787,-2.46751 4.960937,-3.92151 1.422347,-1.3551 2.7119,-2.85746 3.874257,-4.44122 1.12508,-1.53297 2.174643,-3.14228 2.976562,-4.86644 0.77711,-1.67082 1.31514,-3.45331 1.74814,-5.24442 0.58411,-2.41615 1.13393,-7.37053 1.13393,-7.37053 0,0 6.8633,-3.43158 10.58333,-4.15774 1.37579,-0.26856 3.33636,-0.0806 3.33636,-0.0806"
         id="path1013"
         inkscape:connector-curvature="0"
         sodipodi:nodetypes="ccccsssscsc" />
      <path
         style="opacity:1;fill:#366994;fill-opacity:1;stroke:none;stroke-width:0.27280101px;stroke-linecap:butt;stroke-linejoin:miter;stroke-opacity:1"
         d="m 73.002311,261.55317 c 0,0 2.25596,0.0678 3.2585,0.006 1.02579,-0.0632 2.04517,-0.20094 3.06387,-0.33073 1.07471,-0.13693 2.14768,-0.28916 3.21454,-0.47247 0.46212,-0.0794 0.99743,-0.22894 1.46023,-0.34123 0.2618,-0.0635 0.47906,-0.22356 0.69955,-0.084 0.1553,0.0983 0.27597,0.45852 0.10046,0.51972 -0.48553,0.1693 -0.5533,0.18392 -0.84758,0.23624 -0.66108,0.11752 -1.01135,0.23313 -1.55619,0.30677 -0.80052,0.10819 -1.62074,0.32936 -2.41806,0.44918 -2.02497,0.30431 -4.04035,0.67665 -6.07749,0.8977 -0.4503,0.0489 -1.35614,0.0945 -1.35614,0.0945 z"
         id="path874"
         inkscape:connector-curvature="0"
         sodipodi:nodetypes="csssssssssscc" />
      <path
         style="display:inline;opacity:1;fill:#366994;fill-opacity:1;stroke:none;stroke-width:0.26458299px;stroke-linecap:butt;stroke-linejoin:miter;stroke-opacity:1"
         d="m 71.207491,266.95275 c 0,0 2.06584,0.49011 3.00224,0.61784 0.95811,0.13072 1.9252,0.1872 2.89007,0.25134 1.01793,0.0677 2.03731,0.12 3.05726,0.14075 0.4418,0.009 0.96506,-0.037 1.41406,-0.0601 0.25399,-0.013 0.4862,-0.12908 0.66156,0.0491 0.12352,0.12549 0.16283,0.50112 -0.0112,0.52813 -0.48132,0.0747 -0.54671,0.0763 -0.8284,0.0723 -0.63279,-0.009 -0.97873,0.0385 -1.49563,0.008 -0.75946,-0.0443 -1.55963,0.0183 -2.31846,-0.014 -1.92723,-0.0821 -3.85919,-0.0958 -5.78101,-0.26176 -0.42481,-0.0367 -1.26886,-0.16209 -1.26886,-0.16209 z"
         id="path874-3"
         inkscape:connector-curvature="0"
         sodipodi:nodetypes="csssssssssscc" />
      <path
         style="display:inline;opacity:1;fill:#366994;fill-opacity:1;stroke:none;stroke-width:0.243901px;stroke-linecap:butt;stroke-linejoin:miter;stroke-opacity:1"
         d="m 68.495778,271.67128 c 0,0 1.664593,0.819 2.432133,1.09704 0.78535,0.28452 1.58846,0.49726 2.38864,0.71728 0.84419,0.23202 1.69173,0.44915 2.54409,0.63521 0.36921,0.0806 0.81432,0.12016 1.19399,0.17024 0.21475,0.0284 0.42548,-0.0484 0.5479,0.15598 0.0863,0.14388 0.0674,0.5209 -0.0823,0.5193 -0.4139,-0.004 -0.46894,-0.0135 -0.70459,-0.0632 -0.52936,-0.11161 -0.82598,-0.1209 -1.25524,-0.23458 -0.63068,-0.16707 -1.31028,-0.2351 -1.9421,-0.39019 -1.60465,-0.39388 -3.2227,-0.72102 -4.811247,-1.1968 -0.351193,-0.10497 -1.041583,-0.36592 -1.041583,-0.36592 z"
         id="path874-6"
         inkscape:connector-curvature="0"
         sodipodi:nodetypes="csssssssssscc" />
      <path
         style="display:inline;opacity:1;fill:#366994;fill-opacity:1;stroke:none;stroke-width:0.196922px;stroke-linecap:butt;stroke-linejoin:miter;stroke-opacity:1"
         d="m 64.331808,276.80198 c 0,0 0.996654,0.72537 1.471662,0.96265 0.486003,0.24282 0.995149,0.41478 1.501202,0.5939 0.533866,0.18901 1.07231,0.3633 1.618836,0.50704 0.236729,0.0623 0.531054,0.0811 0.77956,0.11319 0.140593,0.0181 0.294733,-0.0662 0.345733,0.12773 0.0359,0.13658 -0.0353,0.50535 -0.13604,0.51043 -0.278712,0.0141 -0.314453,0.008 -0.465827,-0.0303 -0.339947,-0.0857 -0.538814,-0.0813 -0.81094,-0.17324 -0.399828,-0.13505 -0.848036,-0.17125 -1.250482,-0.29458 -1.022101,-0.31323 -2.063525,-0.56103 -3.062172,-0.95445 -0.220748,-0.087 -0.919202,-0.37704 -0.919202,-0.37704 z"
         id="path874-7"
         inkscape:connector-curvature="0"
         sodipodi:nodetypes="csssssssssscc" />
    </g>
    <g
       inkscape:groupmode="layer"
       id="layer1"
       inkscape:label="trace_body"
       style="display:inline">
      <path
         style="fill:none;stroke:#274d71;stroke-width:1.20000005;stroke-linecap:round;stroke-linejoin:round;stroke-miterlimit:4;stroke-dasharray:none;stroke-opacity:1"
         d="m 41.227753,248.30722 c 0.712569,2.37089 2.058431,4.28645 3.82701,5.71688 0.988553,0.78256 2.089407,1.56339 3.260044,2.03163 1.396599,0.55861 2.481036,0.78144 3.973498,0.96879 1.330537,0.16702 3.040375,0.0723 4.294731,-0.40183 0.860512,-0.32527 2.318982,-1.60065 2.834822,-2.36236 0.883099,-1.30401 0.850447,-3.68526 0.850447,-3.68526"
         id="path888"
         inkscape:connector-curvature="0"
         sodipodi:nodetypes="ccssssc" />
      <path
         style="fill:none;stroke:#274d71;stroke-width:1.20000005;stroke-linecap:round;stroke-linejoin:round;stroke-miterlimit:4;stroke-dasharray:none;stroke-opacity:1"
         d="m 43.590104,252.5122 c 0,0 1.308531,-0.51748 1.984375,-0.70871 0.805449,-0.2279 1.629969,-0.38948 2.456847,-0.51971 1.798795,-0.28331 3.61391,-0.49374 5.433406,-0.56697 1.337953,-0.0538 4.015997,0.0945 4.015997,0.0945"
         id="path890"
         inkscape:connector-curvature="0"
         sodipodi:nodetypes="csssc" />
      <path
         style="fill:none;stroke:#274d71;stroke-width:1.20000005;stroke-linecap:round;stroke-linejoin:round;stroke-miterlimit:4;stroke-dasharray:none;stroke-opacity:1"
         d="m 87.151861,249.67738 c 0,0 0.59714,4.93678 0.61421,7.41778 0.006,0.91559 -0.0715,1.83229 -0.18899,2.74033 -0.31276,2.41687 -0.6279,4.8603 -1.37016,7.18154 -0.51728,1.61765 -1.1979,3.20797 -2.12612,4.63021 -1.12799,1.72832 -2.52119,3.31356 -4.11049,4.63021 -1.37066,1.13551 -2.98221,1.96207 -4.58296,2.74033 -2.01753,0.98089 -4.30171,1.56154 -6.472843,2.12612 -2.894916,0.75279 -5.722261,1.21382 -8.693452,1.55915 -2.999759,0.34865 -4.592793,0.4261 -7.60677,0.23624 -2.509546,-0.15809 -6.368342,-0.3551 -8.787946,-1.03944 -3.532306,-0.99905 -7.099411,-2.01978 -10.394347,-3.63802 -2.697597,-1.32487 -5.300015,-2.93204 -7.559521,-4.91369 -1.822388,-1.59828 -3.438892,-3.47308 -4.724704,-5.5279 -1.421686,-2.27196 -2.734577,-4.73344 -3.212796,-7.37054 -0.968008,-5.33801 -0.482443,-11.73944 0.850446,-16.25297 0.742853,-2.42439 2.076791,-4.6241 3.449033,-6.75633 1.19384,-1.85503 2.768041,-3.49946 4.535713,-4.8192 1.710062,-1.27673 4.152637,-2.34465 6.130302,-3.14664 2.538793,-1.02954 4.598287,-1.51164 7.495739,-2.02691 3.283299,-0.58388 9.808482,-1.77176 9.808482,-1.77176"
         id="path892"
         inkscape:connector-curvature="0"
         sodipodi:nodetypes="csssssssssssssscssssc" />
      <path
         style="fill:none;stroke:#274d71;stroke-width:1.20000005;stroke-linecap:round;stroke-linejoin:round;stroke-miterlimit:4;stroke-dasharray:none;stroke-opacity:1"
         d="m 87.736771,257.916 c 0,0 5.91089,4.25757 9.020353,6.1472 2.24821,1.36624 4.448666,2.92359 6.949006,3.74177 2.68228,0.87772 6.32273,1.78602 9.14153,1.92526 3.0723,0.15177 5.49925,-0.30659 8.46485,-1.12345 2.11387,-0.58226 3.98464,-1.88138 5.77971,-3.14042 2.1571,-1.51296 4.37676,-3.10481 5.91333,-5.24516 1.41731,-1.97423 2.59494,-4.29861 3.31221,-6.62066 0.74771,-2.42058 0.8967,-5.01474 1.03092,-7.54462 0.15228,-2.87043 -0.20981,-5.77319 -0.8018,-8.58604 -0.47142,-2.23996 -1.12369,-4.77088 -1.98258,-6.89267 -1.15875,-2.86253 -2.49271,-5.39958 -4.19803,-7.9742 -1.72973,-2.61147 -3.8077,-5.0439 -6.21402,-7.04923 -1.82662,-1.52224 -4.00983,-2.5672 -6.11379,-3.67496 -1.73296,-0.91242 -5.34539,-2.43883 -5.34539,-2.43883 0,0 5.09827,4.98191 7.28309,7.78422 1.32762,1.70284 2.49844,3.5369 3.50792,5.44562 1.62843,3.07903 3.20159,6.25008 4.07586,9.6217 0.551,2.12492 0.8549,4.35828 0.70158,6.54811 -0.12111,1.72977 -0.45542,3.5137 -1.26953,5.04471 -0.81456,1.53186 -2.01051,2.94437 -3.4745,3.87541 -1.75692,1.11733 -3.91636,1.52845 -5.98016,1.80407 -2.00972,0.2684 -4.10934,0.30835 -6.08038,-0.16705 -1.90783,-0.46016 -3.63074,-1.52664 -5.31198,-2.53906 -3.21886,-1.93834 -9.053766,-6.71514 -9.053766,-6.71514"
         id="path894"
         inkscape:connector-curvature="0"
         sodipodi:nodetypes="cssssssssssssscsssssssssc" />
    </g>
  </g>
  <g
     inkscape:groupmode="layer"
     id="layer6"
     inkscape:label="waffle"
     style="display:inline"
     transform="translate(0,-147)">
    <g
       inkscape:groupmode="layer"
       id="layer4"
       inkscape:label="waffle base"
       style="display:inline">
      <path
         style="display:inline;opacity:0.98999999;fill:#fbd596;fill-opacity:1;fill-rule:nonzero;stroke:none;stroke-width:0.25969088;stroke-linecap:round;stroke-miterlimit:4;stroke-dasharray:none;stroke-dashoffset:0;stroke-opacity:1"
         d="m 70.816321,257.57109 c -5.137759,-0.44689 -10.704726,-2.4227 -15.114859,-5.3645 -2.021689,-1.34858 -7.37549,-6.73083 -8.700719,-8.74694 -2.960164,-4.50342 -4.803275,-9.84359 -5.280251,-15.29881 -0.671471,-7.67982 1.100963,-14.74988 5.230027,-20.86201 4.893654,-7.24393 12.157061,-12.20237 20.240338,-13.81725 6.152754,-1.22921 12.865144,-0.73004 18.324544,1.3627 1.79463,0.68793 5.03545,2.33209 6.61907,3.35803 1.74449,1.13017 7.722983,7.14668 8.885449,8.94199 2.46839,3.81212 4.68857,9.81539 5.19923,14.05848 0.20361,1.69174 0.20186,5.40407 -0.003,7.44392 -0.74102,7.36044 -3.73285,13.77818 -8.954696,19.20877 -6.287813,6.53915 -14.413303,9.90518 -23.645443,9.79528 -1.20015,-0.0143 -2.45976,-0.0501 -2.79918,-0.0797 z"
         id="path4749"
         inkscape:connector-curvature="0"
         sodipodi:nodetypes="cssssssscscsscc" />
    </g>
    <g
       inkscape:groupmode="layer"
       id="layer2"
       inkscape:label="waffle lines"
       style="display:inline" />
    <g
       inkscape:groupmode="layer"
       id="layer3"
       inkscape:label="WFL text"
       style="display:inline">
      <g
         id="g942"
         style="fill:#6c4709;fill-opacity:1"
         transform="translate(-30.162499,101.6)">
        <g
           style="display:inline;fill:#6c4709;fill-opacity:1"
           id="g926" />
        <g
           aria-label="WFL"
           transform="scale(0.8998969,1.1112384)"
           style="font-style:normal;font-weight:normal;font-size:24.80179977px;line-height:1.25;font-family:sans-serif;letter-spacing:0px;word-spacing:0px;opacity:0.98999999;fill:#6c4709;fill-opacity:1;stroke:none;stroke-width:0.62004399"
           id="text4706" />
      </g>
      <text
         xml:space="preserve"
         style="font-style:normal;font-weight:normal;font-size:31.82647896px;line-height:1.25;font-family:sans-serif;letter-spacing:0px;word-spacing:0px;fill:#6c4709;fill-opacity:0.99215686;stroke:none;stroke-width:0.79566193"
         x="49.681828"
         y="235.0652"
         id="text887-5"><tspan
           sodipodi:role="line"
           id="tspan885-5"
           x="49.681828"
           y="235.0652"
           style="font-style:normal;font-variant:normal;font-weight:bold;font-stretch:normal;font-size:31.82647896px;font-family:'Latin Modern Mono Light';-inkscape-font-specification:'Latin Modern Mono Light, Bold';font-variant-ligatures:no-common-ligatures;font-variant-caps:normal;font-variant-numeric:normal;font-feature-settings:normal;text-align:start;writing-mode:lr-tb;text-anchor:start;fill:#6c4709;fill-opacity:0.99215686;stroke-width:0.79566193">wfl</tspan></text>
      <path
         id="path4686-3-3"
         style="display:inline;opacity:0.98999999;fill:#6c4709;fill-opacity:1;fill-rule:nonzero;stroke-width:0.3006402"
         d="m 53.331157,214.61936 c 0,0 -2.32527,-2.27466 -2.61124,-2.27466 -0.82495,0 1.32686,2.29614 1.32686,2.29614 z m 33.051174,22.03201 c 0,0 -1.01861,0.7582 -1.31148,1.01546 l -2.68336,2.37515 -3.1349,-3.58488 z m -5.46528,0.30546 1.56649,1.60014 1.61415,-1.32867 c -0.92831,0.33489 -3.18064,-0.27146 -3.18064,-0.27146 z m -2.01858,-22.90169 c 0,0 0.98048,-0.80691 1.26047,-1.07813 l 2.56453,-2.50298 3.30575,3.42798 z m 5.44391,-0.57122 -1.64253,-1.52197 -1.54755,1.40569 c 0.91091,-0.3797 3.19008,0.11627 3.19008,0.11627 z m -14.43353,23.04246 c 0,0 -1.002996,0.77875 -1.290556,1.0419 l -2.634552,2.4292 -3.20711,-3.52044 z m -5.457935,0.41647 1.598675,1.56797 1.586812,-1.3612 c -0.921306,0.35369 -3.185487,-0.20676 -3.185487,-0.20676 z M 61.61805,213.68169 c 0,0 1.013469,-0.76508 1.304572,-1.02431 l 2.667254,-2.39324 3.159069,3.56359 z m 5.463088,-0.34242 -1.577268,-1.58951 -1.605129,1.33955 c 0.926022,-0.34115 3.182397,0.24995 3.182397,0.24995 z m 27.475413,37.95119 c -3.65657,2.9548 -9.10445,5.48389 -14.1077,6.54925 -1.18929,0.25323 -3.59043,0.49712 -5.33588,0.54196 -8.429996,0.21659 -15.745058,-2.26246 -22.157132,-7.50901 -5.240696,-4.28808 -8.79678,-9.61707 -10.717965,-16.06145 -1.03699,-3.4784 -1.297493,-5.29946 -1.34316,-9.3894 -0.0667,-5.97027 1.620571,-12.07493 4.81083,-17.40626 1.471287,-2.4587 2.136635,-3.2795 4.891677,-6.03455 2.755043,-2.75506 3.57581,-3.42043 6.034546,-4.89169 6.558755,-3.92473 14.380194,-5.564 21.874814,-4.58462 4.66754,0.60994 10.51864,2.90211 14.41183,5.64585 2.35911,1.66261 6.34141,5.63335 8.129589,8.10598 4.77389,6.6013 6.89255,15.66463 5.65584,24.19506 -0.74862,5.16381 -3.5658,11.45906 -7.059919,15.77603 -1.98109,2.44762 -2.54271,3.00655 -5.08738,5.0628 z m 5.43046,-7.32926 c 1.808959,-2.50927 3.477419,-5.69318 4.323289,-8.25008 1.48368,-4.48497 2.01637,-10.35953 1.36332,-15.03489 -0.46821,-3.35193 -2.187,-8.26439 -4.03183,-11.5233 -1.39549,-2.46516 -1.862009,-3.03924 -5.143879,-6.32972 -3.30049,-3.30854 -3.83907,-3.74813 -6.29387,-5.13061 -5.24404,-2.95327 -9.98657,-4.22921 -16.02984,-4.31271 -8.653343,-0.11955 -16.597597,3.08409 -22.645686,9.13219 -6.463695,6.46368 -9.692929,14.28176 -9.531737,23.07663 0.111697,6.0956 1.375567,10.78486 4.31205,15.99911 1.382476,2.45481 1.821761,2.99371 5.130603,6.29387 3.248687,3.24065 3.882332,3.75828 6.199067,5.06793 5.310179,3.00187 10.335667,4.33232 16.323123,4.32137 10.65334,-0.0195 19.82612,-4.71057 26.02539,-13.30979 z m -10.26124,6.76929 c -0.70526,0.0622 -1.354917,-0.0299 -2.66496,0.0551 -0.448956,0.0291 -0.881398,0.17615 -1.294962,0.38049 -0.559802,0.2766 -1.162408,1.09577 -1.162408,1.09577 -1.86518,2.66277 -3.13086,3.02721 -6.20527,1.78667 -2.06298,-0.83242 -2.07376,-0.8304 -4.63497,0.86873 -1.77675,1.17869 -3.70815,0.71241 -5.860636,-1.41494 -1.039752,-1.0269 -1.508829,-1.09699 -3.802225,-0.56492 -2.570249,0.59632 -3.914126,-0.0879 -5.118887,-2.60626 -0.857151,-1.79173 -1.375907,-2.17594 -3.153012,-2.33522 -3.150399,-0.2824 -4.207979,-1.38811 -4.577974,-4.78632 -0.176714,-1.62297 -0.151022,-1.59418 -3.043986,-3.41027 -1.89513,-1.18968 -2.399831,-2.30101 -1.938251,-4.26781 0.575944,-2.45397 0.500177,-3.15221 -0.445876,-4.10941 -2.362492,-2.3903 -2.629109,-4.01861 -1.056375,-6.45128 1.147607,-1.77513 1.250735,-2.49966 0.549504,-3.86096 -0.733502,-1.42395 -0.928055,-3.1572 -0.476714,-4.24686 0.302387,-0.73002 0.702243,-1.13884 1.900516,-1.94309 1.729744,-1.16102 2.003599,-1.69471 1.723688,-3.35908 -0.240493,-1.42995 0.215722,-3.22275 1.0264,-4.03343 0.363984,-0.36397 1.564268,-0.96814 2.667299,-1.34259 0,0 1.318488,-0.51829 1.81535,-1.01982 0.487641,-0.49222 0.839927,-1.63546 0.839927,-1.63546 1.042739,-3.16861 2.014633,-3.82573 5.403218,-3.65316 0,0 1.26196,0.10214 1.87428,-0.20161 0.595111,-0.29522 1.297129,-1.34015 1.297129,-1.34015 0.944235,-1.38343 1.292573,-1.71549 2.183222,-2.08119 1.184808,-0.48649 2.625267,-0.33074 4.153157,0.44905 1.375806,0.70218 2.182276,0.6071 3.566576,-0.4205 2.30721,-1.71274 4.26355,-1.49743 6.52934,0.71852 1.20083,1.17446 1.74922,1.25697 4.32892,0.65154 1.96682,-0.46159 3.07812,0.043 4.26782,1.93824 1.81608,2.89298 1.7873,2.86728 3.41026,3.04398 3.39822,0.37 4.50393,1.4276 4.78632,4.57799 0.15928,1.7771 0.54349,2.29586 2.33522,3.153 2.567229,1.22816 3.227469,2.67305 2.526769,5.52978 -0.48563,1.97989 -0.41507,2.31689 0.72746,3.4744 2.27281,2.30251 2.51096,4.0306 0.88913,6.45104 -0.5259,0.78489 -0.99256,1.58744 -1.03697,1.78347 -0.0445,0.19597 0.2681,1.28154 0.69446,2.41229 1.13361,3.00651 0.75262,4.11205 -2.12535,6.16721 -1.138889,0.8133 -1.186559,0.90772 -1.186549,2.35088 0,4.20295 -0.43697,4.9193 -3.64474,5.97492 0,0 -1.238319,0.50525 -1.730537,0.99289 -0.501528,0.49686 -0.924733,1.66239 -0.924733,1.66239 -0.85512,2.51894 -1.7134,3.41635 -3.41049,3.56604 z m 8.5608,-11.5534 c 0,0 -0.01926,-1.64424 0.31712,-2.36246 0.32756,-0.6994 1.476059,-1.52662 1.476059,-1.52662 2.44193,-2.09853 2.55384,-2.48199 1.5262,-5.23043 -0.93425,-2.49868 -0.94215,-2.45984 1.21066,-5.94778 0.64485,-1.04475 0.35483,-2.07362 -0.97236,-3.44956 -1.76266,-1.82741 -1.918439,-2.31017 -1.50278,-4.65725 0.52607,-2.97046 0.25335,-3.73145 -1.987988,-4.90297 -0.9758,-0.51006 -1.605825,-0.73314 -2.12761,-1.27531 -0.358193,-0.50696 -0.444261,-1.0586 -0.598141,-2.15585 -0.44506,-3.17325 -0.85041,-3.5593 -4.2107,-4.01033 -2.02612,-0.27197 -2.15364,-0.37386 -3.36245,-2.68677 -1.22779,-2.34922 -1.93394,-2.66165 -4.65316,-2.05882 -2.39499,0.53095 -2.99608,0.35077 -4.77945,-1.43259 -1.63092,-1.63093 -2.59054,-1.68338 -4.7366,-0.25897 -0.8389,0.55683 -1.7906,1.04492 -2.11489,1.08468 -0.3243,0.0398 -1.52394,-0.26871 -2.665876,-0.68548 -1.14192,-0.41674 -2.391397,-0.6623 -2.776596,-0.54568 -0.471101,0.14264 -1.209602,0.81865 -2.256159,2.06525 0,0 -0.993299,1.21768 -1.729448,1.54727 -0.624454,0.27957 -1.877962,0.24332 -1.877962,0.24332 -2.807459,-0.0857 -3.415573,0.12842 -4.073239,1.43402 -0.288035,0.57181 -0.636566,1.50535 -0.774521,2.07454 -0.350235,1.44506 -1.057193,2.04433 -3.423492,2.90197 -1.372283,0.49737 -2.156723,0.94459 -2.366322,1.34909 -0.172442,0.33281 -0.29692,1.64531 -0.276604,2.91668 0,0 0.01784,1.44683 -0.302168,2.14788 -0.332909,0.72931 -1.502934,1.71014 -1.502934,1.71014 -1.238509,1.03976 -1.911662,1.77636 -2.054504,2.24823 -0.117401,0.38772 0.16851,1.72078 0.638884,2.97878 0.922339,2.46687 0.971869,2.19554 -0.99538,5.45334 -0.841767,1.39397 -0.676426,2.42161 0.594,3.69204 1.960058,1.96005 2.119579,2.43939 1.613572,4.84847 -0.607545,2.89248 -0.353598,3.49788 1.97868,4.71703 2.387332,1.24794 2.481234,1.3638 2.754281,3.39792 0.451035,3.36029 0.837097,3.76563 4.010335,4.21069 1.097258,0.15389 2.146986,0.54873 2.342948,0.73847 0.454412,0.43998 0.765261,1.04657 1.275302,2.02238 1.171537,2.24132 1.745425,2.47898 4.715872,1.95292 2.33504,-0.41354 2.832786,-0.25622 4.612245,1.45774 1.841356,1.77355 2.142796,1.76478 5.548336,-0.16166 0,0 1.168943,-0.55041 1.773409,-0.59795 0.819807,-0.0645 2.120611,0.56633 2.120611,0.56633 2.74749,1.02727 3.09836,0.92404 5.26648,-1.54943 0,0 0.930903,-1.03318 1.657738,-1.35268 0.711041,-0.31256 2.241812,-0.38539 2.241812,-0.38539 2.01039,0.0459 2.43451,-0.0542 3.09614,-0.73037 0.43512,-0.44476 1.00011,-1.5612 1.30658,-2.582 0.29698,-0.98917 0.732099,-1.49458 0.850734,-1.61327 0.118615,-0.11866 0.709626,-0.79022 1.429576,-1.0022 1.84076,-0.54198 3.2577,-1.25899 3.51138,-1.77686 0.11896,-0.24285 0.23249,-1.51209 0.25233,-2.82054 z m -8.58664,8.21331 c -0.15587,0 -1.45306,-1.16961 -2.88257,-2.59912 -2.17397,-2.17397 -2.56521,-2.67529 -2.39191,-3.06445 0.30982,-0.69563 5.53074,-5.82946 6.04542,-5.9445 0.33231,-0.0743 1.10069,0.58604 3.0235,2.59832 2.26271,2.36798 2.54119,2.75214 2.27726,3.14127 -0.27239,0.40158 -0.53242,0.21164 -2.76102,-2.01696 l -2.46032,-2.46031 -2.44471,2.44472 -2.44473,2.44472 2.44473,2.44473 c 1.89554,1.89555 2.381,2.50844 2.16128,2.72816 -0.1559,0.1559 -0.41102,0.28344 -0.56689,0.28345 z m -5.94602,-0.56054 -1.48174,-1.48174 -2.76992,2.651 c -2.29029,2.19195 -2.82516,2.59574 -3.08881,2.33208 -0.26317,-0.26317 0.13466,-0.7939 2.27698,-3.03763 3.7168,-3.89275 3.42147,-3.8064 5.59269,-1.63519 1.6612,1.6612 1.7695,1.83635 1.37776,2.22809 -0.38451,0.38451 -0.5669,0.28345 -1.90692,-1.05657 z m -14.568396,2.01321 -3.507646,-3.50765 -1.757038,1.7506 c -1.832919,1.82649 -2.792233,2.35025 -2.792233,1.52531 0,-0.28596 0.856003,-1.26864 2.274647,-2.61124 l 2.274681,-2.15271 3.937599,3.82175 c 3.827786,3.71514 3.925626,3.83371 3.507646,4.25169 -0.41419,0.41419 -0.55865,0.30128 -3.937616,-3.07769 z m 25.430716,-34.05608 c 0,0 2.32527,-2.27466 2.61124,-2.27466 0.82495,0 -1.32686,2.29614 -1.32686,2.29614 z m -20.82228,33.37141 c -0.21439,-0.0955 -1.69771,-1.53501 -3.29633,-3.19893 l -2.906487,-3.02541 3.188767,-3.18878 3.18877,-3.18877 3.18877,3.18877 3.18877,3.18878 -3.08121,3.199 c -2.4069,2.49882 -3.16696,3.16054 -3.47101,3.02537 z m 2.61944,-8.66906 -2.44473,-2.44473 -2.44473,2.44473 -2.444716,2.44472 2.444716,2.44473 2.44473,2.44472 2.44473,-2.44472 2.44473,-2.44473 z m -17.006765,6.59012 c -0.752024,-0.17752 -0.431491,-0.84402 1.181751,-2.45727 l 1.688134,-1.68813 -2.436123,-2.43612 -2.436134,-2.43613 -1.813171,1.68976 c -1.53619,1.43157 -1.882312,1.64282 -2.26542,1.38264 -0.414184,-0.2813 -0.262525,-0.48657 1.804615,-2.44238 l 2.256795,-2.1353 3.125401,3.00697 c 2.355016,2.26583 3.100664,3.11674 3.026079,3.45125 -0.143046,0.63986 -3.72272,4.16131 -4.131893,4.06473 z m 31.228535,-31.15295 c -0.3377,0.0716 -1.19126,-0.67693 -3.45548,-3.03028 l -3.00697,-3.1254 2.13531,-2.25679 c 1.9558,-2.06716 2.16111,-2.2188 2.44239,-1.80462 0.26017,0.38311 0.049,0.72923 -1.38264,2.26542 l -1.68977,1.81317 2.42754,2.42752 2.42752,2.42754 1.81561,-1.69204 c 1.43872,-1.34085 1.88176,-1.62589 2.13444,-1.3732 0.25582,0.25582 -0.0487,0.70794 -1.54027,2.28626 -1.02256,1.08202 -2.06095,2.01018 -2.30764,2.06247 z m -16.66267,-0.17354 c -0.45356,0.0705 -1.06935,-0.45334 -3.46647,-2.94827 l -2.914944,-3.03386 3.188764,-3.18877 3.18877,-3.18877 3.19444,3.07682 c 1.75699,1.69221 3.13536,3.16637 3.06319,3.27578 -0.64415,0.97661 -5.8094,5.93813 -6.25379,6.00709 z m 2.44087,-8.42686 -2.44473,-2.44474 -2.44472,2.44473 -2.444716,2.44472 2.444716,2.44472 2.44472,2.44473 2.44473,-2.44473 2.44473,-2.44471 z m 5.81867,0.14091 c -0.78825,0.12238 -7.98062,-7.33271 -7.51934,-7.79399 0.26844,-0.26843 0.89137,0.23517 3.93796,3.18364 l 3.61904,3.50255 1.89556,-1.89557 c 1.11326,-1.11324 2.04699,-1.85985 2.26244,-1.80898 0.20176,0.0476 0.36666,0.15339 0.36644,0.23499 -8.4e-4,0.39142 -4.10195,4.50591 -4.56169,4.57777 z m -25.046681,8.3979 c -0.428764,0 -5.193314,-4.84498 -5.320099,-5.40994 -0.25922,-1.15492 0.728411,-0.58812 3.089631,1.7731 l 2.432169,2.43218 2.444725,-2.44473 2.444725,-2.44472 -2.282067,-2.2885 c -1.255303,-1.25852 -2.331336,-2.52624 -2.391593,-2.81674 -0.229619,-1.10717 0.93743,-0.33346 3.451558,2.28824 l 2.497585,2.60445 -3.036169,3.1533 c -1.669897,1.73434 -3.169011,3.15295 -3.330511,3.15334 z m 8.083913,-8.38262 c -0.217347,-0.0968 -1.075339,-0.91296 -1.906549,-1.81367 -1.180434,-1.27911 -1.441539,-1.70745 -1.19249,-1.95651 0.248391,-0.24838 0.673427,0.008 1.922583,1.1599 l 1.603663,1.47882 2.754295,-2.75429 c 2.306516,-2.30655 2.806116,-2.70248 3.073156,-2.43543 0.26882,0.26882 -0.16608,0.80384 -2.770266,3.40804 -2.389974,2.38998 -3.17863,3.04928 -3.48438,2.91313 z"
         inkscape:connector-curvature="0"
         sodipodi:nodetypes="cscccccccccccccccccccccccccccccccccccccccccccccccccccsccccccsccccccccccccscssccccccccccccsccccssccsscccccccccscccccccsccccsccccccccccsccccccscccsccscccccccccsccccsccscccscccccscccccccccsccccccccssccccscccscccscccccccccccccccccccccccccccccccccccccccscccccccccccccccccccccccccccccccccccccccccccsccccacccccccca" />
    </g>
  </g>
  <g
     style="display:inline;opacity:1"
     inkscape:label="head"
     id="g4719"
     inkscape:groupmode="layer"
     transform="translate(0,-147)">
    <path
       sodipodi:nodetypes="csssscscsc"
       inkscape:connector-curvature="0"
       id="path4677"
       d="m 67.692739,165.8224 c 0,0 2.527212,-1.68583 3.807792,-2.35604 1.06086,-0.55521 3.20566,-0.79384 4.38068,-0.82839 1.63694,-0.0481 2.42623,0.10931 4.00306,0.59373 0.98718,0.30327 2.45419,1.14967 3.37276,1.64892 0.87075,0.47327 1.81917,1.56387 1.81917,1.56387 0,0 -3.18356,7.69965 -4.81718,11.52823 -1.23438,2.89294 -3.76614,8.64616 -3.76614,8.64616 0,0 -4.22717,-7.22449 -5.78062,-11.14395 -1.170705,-2.95376 -3.019522,-9.65253 -3.019522,-9.65253 z"
       style="fill:#366994;fill-opacity:1;stroke:#274d71;stroke-width:1.20000005;stroke-linecap:butt;stroke-linejoin:miter;stroke-miterlimit:4;stroke-dasharray:none;stroke-opacity:1" />
    <path
       style="fill:#ffffff;fill-opacity:1;stroke:#757575;stroke-width:0.6180979;stroke-linecap:round;stroke-linejoin:round;stroke-miterlimit:4;stroke-dasharray:none;stroke-opacity:1"
       d="m 67.929457,197.96209 c 0,0 -1.174964,3.08764 -1.256625,4.8126 -0.105839,2.23565 1.023926,6.53652 1.023926,6.53652 0,0 -2.87568,-4.47719 -3.304481,-7.39847 -0.392211,-2.672 0.651585,-8.11678 0.837754,-8.11678 0.186168,0 2.699426,4.16613 2.699426,4.16613 z"
       id="path4723"
       inkscape:connector-curvature="0"
       sodipodi:nodetypes="cscssc" />
    <path
       style="display:inline;opacity:1;fill:#ffffff;fill-opacity:1;stroke:#757575;stroke-width:0.6180979;stroke-linecap:round;stroke-linejoin:round;stroke-miterlimit:4;stroke-dasharray:none;stroke-opacity:1"
       d="m 84.689711,198.46821 c 0,0 1.17497,3.08764 1.25663,4.8126 0.10583,2.23565 -1.02393,6.53652 -1.02393,6.53652 0,0 2.87569,-4.47719 3.30449,-7.39848 0.39221,-2.67199 -0.65159,-8.11677 -0.83776,-8.11677 -0.18617,0 -2.69943,4.16613 -2.69943,4.16613 z"
       id="path4723-5"
       inkscape:connector-curvature="0"
       sodipodi:nodetypes="cscssc" />
    <path
       sodipodi:nodetypes="ccsssssssscsssssssssscssssssssc"
       inkscape:connector-curvature="0"
       id="path4717"
       d="m 49.271227,187.18904 c -0.74199,-2.12824 -0.63594,-4.87936 0.23435,-6.51966 0.64782,-1.19502 2.11263,-2.32753 2.86654,-3.44519 2.08954,-3.0977 1.88587,-7.56756 3.85374,-10.75968 0.78668,-1.27608 1.8715,-2.35921 3.06547,-3.17027 1.00516,-0.68279 2.16185,-1.13284 3.32823,-1.34495 1.18123,-0.2148 2.46762,-0.35839 3.59099,0.0961 1.12937,0.4569 2.039759,1.47652 2.802719,2.49778 0.79461,1.06363 1.203245,2.41405 1.751695,3.65061 0.7745,1.74619 1.17362,5.59982 2.11814,7.93377 1.34977,3.33536 3.15527,4.98086 3.15527,4.98086 0,0 1.67288,-1.43052 3.05992,-4.85582 1.00299,-2.47688 1.63336,-6.76669 2.43963,-8.63523 0.5027,-1.165 0.81606,-2.47587 1.57652,-3.45846 0.6765,-0.8741 1.5675,-1.59689 2.53997,-2.01744 1.31385,-0.56817 2.18213,-0.47274 3.56446,-0.15546 1.39673,0.32057 2.53564,1.46456 3.67857,2.40171 0.86043,0.70552 1.76853,1.42155 2.3648,2.40171 1.640583,2.69682 1.586903,6.31924 3.065473,9.12652 0.45624,0.86626 1.21211,1.49907 1.751696,2.30564 0.86237,1.28909 1.96349,1.76564 2.35206,2.96617 0.81963,2.53234 1.08399,4.96604 -0.35431,7.97716 -1.0265,2.1217 -0.59094,1.63324 -2.03437,3.38618 -2.244276,2.72549 -5.253889,5.28331 -8.859559,5.9594 -3.46349,0.64942 -8.51642,-0.31363 -11.4392,-1.87965 -1.04618,-0.56055 -3.95021,-3.13449 -3.79588,-2.87954 0.0204,0.0338 -0.0603,0.15057 -0.22846,0.3261 -1.10127,1.14929 -5.952907,4.81686 -10.715672,4.19114 -3.868515,-0.50823 -9.101688,-2.43257 -11.793631,-5.50688 -1.160294,-1.3251 -1.857097,-1.88639 -2.77541,-3.21445 -0.376041,-0.54382 -0.881731,-1.75909 -1.163751,-2.35814 z"
       style="display:inline;opacity:1;fill:#387cb5;fill-opacity:1;stroke:#274d71;stroke-width:1.20000005;stroke-linecap:butt;stroke-linejoin:miter;stroke-miterlimit:4;stroke-dasharray:none;stroke-opacity:1" />
    <path
       sodipodi:nodetypes="sssssssssscssssssss"
       inkscape:connector-curvature="0"
       id="path4683"
       d="m 55.970189,165.90444 c 0.880632,-0.98409 1.8783,-1.74637 3.43723,-1.96999 0.99294,-0.14242 2.07367,-0.008 2.97273,0.47551 0.72094,0.38787 1.3072,1.08814 1.7341,1.83414 0.80864,1.41311 1.77654,3.12995 2.32244,4.68722 0.49424,1.40988 1.12625,2.75701 1.672167,4.14377 0.67484,1.71426 0.89735,3.72342 1.981815,5.16274 0.33192,0.44052 0.68374,0.41046 0.85283,0.95103 0.10594,0.33864 -0.0502,0.80164 -0.30966,1.01896 -0.59153,0.49557 -1.067845,0.36671 -1.781815,0.13587 -0.53865,-0.17414 -1.362487,-1.08689 -1.362487,-1.08689 0,0 -3.09834,1.10656 -4.70684,1.29068 -1.66427,0.1905 -3.37087,0.12879 -5.01648,-0.20379 -1.13638,-0.22967 -2.4116,-0.38963 -3.2824,-1.22276 -1.0784,-1.03176 -1.863349,-2.64332 -1.919879,-4.2117 -0.037,-1.02518 0.39501,-2.06985 0.65028,-3.05689 0.302859,-1.17108 0.653289,-2.22663 0.959949,-3.39653 0.28389,-1.08309 0.75958,-2.09491 1.1767,-3.12482 0.19495,-0.48132 0.273627,-1.04025 0.61932,-1.42655 z"
       style="fill:#366994;fill-opacity:1;stroke:none;stroke-width:0.72645497px;stroke-linecap:butt;stroke-linejoin:miter;stroke-opacity:1" />
    <path
       sodipodi:nodetypes="sssssssscsssssss"
       inkscape:connector-curvature="0"
       id="path4685"
       d="m 54.640419,168.65407 c 0.58273,-0.73764 1.22315,-1.47493 2.01446,-1.92138 0.89418,-0.50449 1.93313,-0.8736 2.93409,-0.76855 0.84543,0.0887 1.6226,0.62276 2.321,1.15282 0.59417,0.45096 1.05542,1.08624 1.53274,1.68121 0.53623,0.66838 1.10081,1.33157 1.48895,2.1135 0.50337,1.01404 0.78946,2.14795 1.05102,3.26634 0.26833,1.14737 0.49031,2.32261 0.52551,3.5065 0.0243,0.82006 -0.21895,2.44974 -0.21895,2.44974 0,0 -3.94754,0.54107 -5.912,0.33624 -0.97278,-0.10142 -1.96291,-0.3109 -2.84651,-0.76854 -1.03752,-0.53736 -2.08425,-1.23968 -2.75893,-2.25761 -0.48046,-0.72489 -0.7638,-1.64386 -0.97438,-2.50979 -0.21471,-0.8829 -0.27256,-1.81252 -0.2956,-2.72595 -0.0176,-0.6949 0.0419,-1.41385 0.26275,-2.06547 0.18761,-0.55369 0.52319,-1.04266 0.87585,-1.48906 z"
       style="fill:#fafafa;fill-opacity:1;stroke:#000000;stroke-width:0.232978;stroke-linecap:butt;stroke-linejoin:miter;stroke-miterlimit:4;stroke-dasharray:none;stroke-opacity:1" />
    <path
       sodipodi:nodetypes="sssssssssssssss"
       inkscape:connector-curvature="0"
       id="path4687"
       d="m 58.741639,171.47476 c -0.34705,0.48741 -0.63571,1.04336 -0.79902,1.63531 -0.17825,0.64614 -0.17538,1.34089 -0.17641,2.01597 -9.1e-4,0.61399 -0.0193,1.2506 0.15483,1.83412 0.18727,0.62741 0.52995,1.20405 0.92899,1.69828 0.52908,0.65529 1.13044,1.34124 1.88892,1.61335 0.83426,0.29929 1.80481,0.23678 2.63211,-0.0849 0.74893,-0.29121 1.42311,-0.88511 1.89487,-1.58643 0.44468,-0.66107 0.64883,-1.50341 0.77572,-2.31306 0.11371,-0.72556 0.0969,-1.48431 -0.0242,-2.20845 -0.12715,-0.76091 -0.32255,-1.54556 -0.7266,-2.17961 -0.3483,-0.54655 -0.8576,-0.97574 -1.39347,-1.29069 -0.58738,-0.34523 -1.2535,-0.61239 -1.91988,-0.61137 -0.89889,0.001 -1.80359,0.35038 -2.58766,0.83257 -0.25445,0.15648 -0.46868,0.39273 -0.64824,0.64491 z"
       style="fill:#ffd642;fill-opacity:1;stroke:#000000;stroke-width:0.370473;stroke-linecap:butt;stroke-linejoin:miter;stroke-miterlimit:4;stroke-dasharray:none;stroke-opacity:1" />
    <ellipse
       cx="34.337437"
       cy="186.76602"
       rx="2.7106142"
       ry="3.6459317"
       transform="matrix(0.9626628,-0.27070341,0.15462591,0.98797309,0,0)"
       id="ellipse4689"
       style="opacity:0.78800001;fill:#000000;fill-opacity:1;stroke:#000000;stroke-width:0.198388;stroke-linecap:round;stroke-miterlimit:4;stroke-dasharray:none;stroke-dashoffset:0;stroke-opacity:1" />
    <ellipse
       cx="-0.073426127"
       cy="183.62648"
       rx="1.191945"
       ry="1.5698441"
       transform="matrix(0.88460624,-0.46633871,0.33080406,0.94369946,0,0)"
       id="ellipse4691"
       style="display:inline;opacity:0.603;fill:#ffffff;fill-opacity:1;stroke:#000000;stroke-width:0.0863246;stroke-linecap:round;stroke-miterlimit:4;stroke-dasharray:none;stroke-dashoffset:0;stroke-opacity:1" />
    <ellipse
       cx="71.211937"
       cy="177.55161"
       rx="0.58770764"
       ry="0.76566267"
       transform="matrix(0.99995386,0.00960611,-0.04282338,0.99908266,0,0)"
       id="ellipse4693"
       style="display:inline;opacity:0.603;fill:#ffffff;fill-opacity:1;stroke:#000000;stroke-width:0.0423329;stroke-linecap:round;stroke-miterlimit:4;stroke-dasharray:none;stroke-dashoffset:0;stroke-opacity:1" />
    <path
       sodipodi:nodetypes="sssssssssscssssssss"
       inkscape:connector-curvature="0"
       id="path4695"
       d="m 95.125841,165.76412 c -0.86209,-0.89109 -1.67952,-1.60605 -3.23845,-1.82967 -0.99294,-0.14242 -2.07367,-0.008 -2.97273,0.47551 -0.72094,0.38787 -1.30719,1.08814 -1.73409,1.83414 -0.80865,1.41311 -1.77654,3.12995 -2.32245,4.68722 -0.49423,1.40988 -1.12624,2.75701 -1.67216,4.14377 -0.67484,1.71426 -0.89735,3.72342 -1.98182,5.16274 -0.33192,0.44052 -0.68374,0.41046 -0.85283,0.95103 -0.10594,0.33864 0.0502,0.80164 0.30966,1.01896 0.59153,0.49557 1.06785,0.36671 1.78181,0.13587 0.53866,-0.17414 1.3625,-1.08689 1.3625,-1.08689 0,0 3.09833,1.10656 4.70683,1.29068 1.66427,0.1905 3.37087,0.12879 5.01648,-0.20379 1.13638,-0.22967 2.4116,-0.38963 3.282403,-1.22276 1.0784,-1.03176 1.86335,-2.64332 1.91989,-4.2117 0.037,-1.02518 -0.39502,-2.06985 -0.65029,-3.05689 -0.30286,-1.17108 -0.65329,-2.22663 -0.95995,-3.39653 -0.28389,-1.08309 -0.75957,-2.09491 -1.176703,-3.12482 -0.19495,-0.48132 -0.40842,-1.14341 -0.8181,-1.56687 z"
       style="display:inline;opacity:1;fill:#366994;fill-opacity:1;stroke:none;stroke-width:0.72645497px;stroke-linecap:butt;stroke-linejoin:miter;stroke-opacity:1" />
    <path
       sodipodi:nodetypes="sssssssscsssssss"
       inkscape:connector-curvature="0"
       id="path4697"
       d="m 96.654394,168.65407 c -0.582733,-0.73764 -1.223153,-1.47493 -2.014453,-1.92138 -0.89418,-0.50449 -1.93314,-0.8736 -2.9341,-0.76855 -0.84543,0.0887 -1.6226,0.62276 -2.321,1.15282 -0.59417,0.45096 -1.05541,1.08624 -1.53274,1.68121 -0.53623,0.66838 -1.1008,1.33157 -1.48895,2.1135 -0.50336,1.01404 -0.78945,2.14795 -1.05101,3.26634 -0.26833,1.14737 -0.49031,2.32261 -0.52551,3.5065 -0.0243,0.82006 0.21895,2.44974 0.21895,2.44974 0,0 3.94754,0.54107 5.91199,0.33624 0.97278,-0.10142 1.96291,-0.3109 2.84651,-0.76854 1.03752,-0.53736 2.08425,-1.23968 2.758933,-2.25761 0.48046,-0.72489 0.7638,-1.64386 0.97438,-2.50979 0.21471,-0.8829 0.27256,-1.81252 0.2956,-2.72595 0.0176,-0.6949 -0.0419,-1.41385 -0.26275,-2.06547 -0.18761,-0.55369 -0.52319,-1.04266 -0.87585,-1.48906 z"
       style="display:inline;opacity:1;fill:#ffffff;fill-opacity:1;stroke:#000000;stroke-width:0.232978;stroke-linecap:butt;stroke-linejoin:miter;stroke-miterlimit:4;stroke-dasharray:none;stroke-opacity:1" />
    <path
       sodipodi:nodetypes="aaaaaaaaaaaaaaa"
       inkscape:connector-curvature="0"
       id="path4699"
       d="m 92.553171,171.47476 c 0.36724,0.48292 0.63668,1.05074 0.79902,1.63531 0.1805,0.64996 0.17538,1.34141 0.17641,2.01597 9.4e-4,0.61355 0.022,1.24661 -0.15483,1.83412 -0.18598,0.61787 -0.52214,1.19746 -0.92899,1.69828 -0.5221,0.6427 -1.10754,1.3393 -1.88892,1.61335 -0.82836,0.29052 -1.812,0.22814 -2.63211,-0.0849 -0.7696,-0.29376 -1.43064,-0.90593 -1.89487,-1.58643 -0.45828,-0.67179 -0.64911,-1.50975 -0.77571,-2.31306 -0.1146,-0.72722 -0.0977,-1.48242 0.0242,-2.20845 0.12683,-0.75527 0.31157,-1.53597 0.7266,-2.17961 0.34311,-0.5321 0.84647,-0.97188 1.39347,-1.29069 0.58026,-0.3382 1.24841,-0.59723 1.91988,-0.61137 0.78245,-0.0165 1.57672,0.24543 2.26519,0.61759 0.38025,0.20555 0.70901,0.51582 0.97066,0.85989 z"
       style="display:inline;opacity:1;fill:#ffdf5a;fill-opacity:1;stroke:#000000;stroke-width:0.370473;stroke-linecap:butt;stroke-linejoin:miter;stroke-miterlimit:4;stroke-dasharray:none;stroke-opacity:1" />
    <ellipse
       cx="-116.20017"
       cy="145.51889"
       rx="2.7106144"
       ry="3.6459317"
       transform="matrix(-0.9626628,-0.27070341,-0.15462591,0.98797309,0,0)"
       id="ellipse4701"
       style="display:inline;opacity:0.78800001;fill:#000000;fill-opacity:1;stroke:#000000;stroke-width:0.198388;stroke-linecap:round;stroke-miterlimit:4;stroke-dasharray:none;stroke-dashoffset:0;stroke-opacity:1" />
    <ellipse
       cx="-144.42819"
       cy="112.29209"
       rx="1.191945"
       ry="1.5698441"
       transform="matrix(-0.88460625,-0.46633871,-0.33080407,0.94369946,0,0)"
       id="ellipse4703"
       style="display:inline;opacity:0.603;fill:#ffffff;fill-opacity:1;stroke:#000000;stroke-width:0.0863246;stroke-linecap:round;stroke-miterlimit:4;stroke-dasharray:none;stroke-dashoffset:0;stroke-opacity:1" />
    <ellipse
       cx="-80.027603"
       cy="179.00575"
       rx="0.58770764"
       ry="0.76566267"
       transform="matrix(-0.99995386,0.00960611,0.04282338,0.99908266,0,0)"
       id="ellipse4705"
       style="display:inline;opacity:0.603;fill:#ffffff;fill-opacity:1;stroke:#000000;stroke-width:0.0423329;stroke-linecap:round;stroke-miterlimit:4;stroke-dasharray:none;stroke-dashoffset:0;stroke-opacity:1" />
    <g
       transform="translate(43.363344,95.051894)"
       id="g4715">
      <path
         inkscape:connector-curvature="0"
         inkscape:original-d="m 21.502819,94.867534 c 1.587765,-1.146263 3.175265,-2.29279 4.7625,-3.439584 2.602053,-0.396618 5.203735,-0.793485 7.805209,-1.190625 2.028777,0.617638 4.057208,1.234988 6.085413,1.852084 1.014521,0.705834 2.028738,1.411374 3.042709,2.116666"
         inkscape:path-effect="#path-effect932"
         id="path4709"
         d="m 21.502819,94.867534 c 1.587548,-1.146563 3.175048,-2.293091 5.269778,-3.064795 2.094729,-0.771705 4.696412,-1.168572 7.011585,-1.058258 2.315174,0.110314 4.343605,0.727663 5.864962,1.389185 1.521356,0.661523 2.535572,1.367064 3.549506,2.072409"
         style="display:inline;fill:none;stroke:#274d71;stroke-width:0.86500001;stroke-linecap:butt;stroke-linejoin:miter;stroke-miterlimit:4;stroke-dasharray:none;stroke-opacity:1" />
      <path
         inkscape:connector-curvature="0"
         sodipodi:nodetypes="csscsssc"
         id="path4711"
         d="m 25.008548,97.017273 c 0,0 0.07805,-1.238277 -0.297656,-1.653646 -0.269188,-0.29761 -0.762569,-0.259859 -1.157552,-0.330729 -0.7074,-0.126925 -2.149739,-0.165364 -2.149739,-0.165364 0,0 1.848457,-0.453109 2.778125,-0.363802 0.451128,0.04334 1.036829,0.05394 1.289843,0.429947 0.19119,0.284127 0.0058,0.690435 -0.06615,1.025261 -0.07913,0.368363 -0.396871,1.058333 -0.396871,1.058333 z"
         style="display:inline;fill:#274d71;fill-opacity:1;stroke:#274d71;stroke-width:0.66500002;stroke-linecap:round;stroke-linejoin:round;stroke-miterlimit:4;stroke-dasharray:none;stroke-opacity:1" />
      <path
         inkscape:connector-curvature="0"
         sodipodi:nodetypes="csscsssc"
         id="path4713"
         d="m 39.453758,96.361858 c 0,0 -0.07805,-1.238277 0.297656,-1.653646 0.269188,-0.29761 0.762569,-0.259859 1.157552,-0.330729 0.7074,-0.126925 2.149739,-0.165364 2.149739,-0.165364 0,0 -1.848457,-0.453109 -2.778125,-0.363802 -0.451128,0.04334 -1.036829,0.05394 -1.289843,0.429947 -0.19119,0.284127 -0.0058,0.690435 0.06615,1.025261 0.07913,0.368363 0.396871,1.058333 0.396871,1.058333 z"
         style="display:inline;fill:#274d71;fill-opacity:1;stroke:#274d71;stroke-width:0.66500002;stroke-linecap:round;stroke-linejoin:round;stroke-miterlimit:4;stroke-dasharray:none;stroke-opacity:1" />
    </g>
  </g>
</svg>
